# xmcd
#
# Track frame offsets:
#	150
#	19938
#	40467
#	58892
#	81940
#	98035
#	115024
#	136284
#	152918
#	172305
#	190704
#	206274
#	231311
#
# Disc length: 3351 seconds
#
# Revision: 1
# Processed by: cddbd v1.5.2PL0 Copyright (c) Steve Scherf et al.
# Submitted via: audiograbber 1.83.01
#
DISCID=b30d150d
DTITLE=Emmylou Harris - All I Intended To Be
DYEAR=2008
DGENRE=Country
TTITLE0=Shores Of White Sand
TTITLE1=Hold On
TTITLE2=Moon Song
TTITLE3=Broken Man's Lament
TTITLE4=Gold
TTITLE5=How She Could Sing The Wildwood Flower
TTITLE6=All That You Have Is Your Soul
TTITLE7=Take That Ride
TTITLE8=Old Five And Dimers Like Me
TTITLE9=Kern River
TTITLE10=Not Enough
TTITLE11=Sailing Round The Room
TTITLE12=Beyond The Great Divide
EXTD=
EXTT0=
EXTT1=
EXTT2=
EXTT3=
EXTT4=
EXTT5=
EXTT6=
EXTT7=
EXTT8=
EXTT9=
EXTT10=
EXTT11=
EXTT12=
PLAYORDER=
